<svg width="278" height="277" viewBox="0 0 278 277" fill="none" xmlns="http://www.w3.org/2000/svg">
<path d="M102.278 73.9838L107.315 86.9747L105.037 95.754L108.726 105.725L105.548 126.396L96.6661 140.982L82.746 143.258L69.5234 137.483L60.6722 124.043" stroke="#303030" stroke-width="3" stroke-miterlimit="10"/>
<path d="M87.5513 100.74L93.7828 112.353L93.8293 116.1L90.3416 118.701" stroke="#303030" stroke-width="3" stroke-miterlimit="10"/>
<path d="M49.8678 88.2289L42.6442 75.8264L43.4503 65.8549L56.1768 62.1698L66.4697 54.1182L82.5289 49.6744L95.3175 49.9686L100.867 62.8046L99.7508 70.6239L81.3199 79.4186L60.3157 76.709L55.4948 87.9657" stroke="#303030" stroke-width="3" stroke-miterlimit="10"/>
<path d="M59.6646 71.6303L57.4169 66.4588" stroke="#303030" stroke-width="3" stroke-miterlimit="10"/>
<path d="M57.2774 112.616L51.2784 110.944L47.1861 96.7759L53.2781 92.4559" stroke="#303030" stroke-width="3" stroke-miterlimit="10"/>
<path d="M90.7601 146.711L93.2403 155.769L85.4742 160.631L67.8028 164.533L41.2336 156.125L38.5674 140.347L47.8217 135.625" stroke="#303030" stroke-width="3" stroke-miterlimit="10"/>
<path d="M53.7742 117.478L55.6808 141.09L53.7431 154.701" stroke="#303030" stroke-width="3" stroke-miterlimit="10"/>
<path d="M47.2636 119.754L23.1902 125.374L16.8192 143.258L31.5919 157.983" stroke="#303030" stroke-width="3" stroke-miterlimit="10"/>
<path d="M85.9082 168.388L94.1859 190.065L95.3795 210.659" stroke="#303030" stroke-width="3" stroke-miterlimit="10"/>
<path d="M72.1586 171.856L76.5145 191.366L74.3288 219.33" stroke="#303030" stroke-width="3" stroke-miterlimit="10"/>
<path d="M100.34 151.433L120.6 158.138L135.807 183.965L137.171 222.148L145.216 259.99" stroke="#303030" stroke-width="3" stroke-miterlimit="10"/>
<path d="M19.4854 155.366L6.69688 168.388L2 219.33L19.4854 267.964" stroke="#303030" stroke-width="3" stroke-miterlimit="10"/>
<path d="M45.0779 191.753L38.5674 217.921L46.5196 262.684" stroke="#303030" stroke-width="3" stroke-miterlimit="10"/>
<path d="M112.88 191.753L114.26 201.91L113.097 234.782L117.918 269.698" stroke="#303030" stroke-width="3" stroke-miterlimit="10"/>
<path d="M125.219 263.303L113.857 240.31" stroke="#303030" stroke-width="3" stroke-miterlimit="10"/>
<path d="M93.3488 89.7927L97.2241 94.7785" stroke="#303030" stroke-width="3" stroke-miterlimit="10"/>
<path d="M76.902 90.7218L80.7773 95.7075" stroke="#303030" stroke-width="3" stroke-miterlimit="10"/>
<path d="M80.2348 129.245L80.6068 125.901L93.8914 126.737L93.6123 129.307L84.7611 131.521" stroke="#303030" stroke-width="3" stroke-miterlimit="10"/>
<path d="M224.443 153.957L218.707 161.095H200.602L189.023 146.339L184.233 129.663L185.256 110.758L181.799 95.0417L188.294 82.3915L204.245 73.5503L224.334 74.4174L237.231 83.7386L244.083 95.1191L240.502 107.227" stroke="#303030" stroke-width="3" stroke-miterlimit="10"/>
<path d="M233.155 136.043L239.526 134.897L242.719 119.041L237.743 111.145L232.504 111.393L229.775 101.901L216.429 91.5269H198.897L188.294 97.8907" stroke="#303030" stroke-width="3" stroke-miterlimit="10"/>
<path d="M202.555 150.055L212.135 147.717L212.631 143.645L203.749 144.481L199.098 146.061" stroke="#303030" stroke-width="3" stroke-miterlimit="10"/>
<path d="M205.857 138.458L201.3 133.952L203.78 123.934" stroke="#303030" stroke-width="3" stroke-miterlimit="10"/>
<path d="M235.015 142.097L233.093 162.814L233.837 174.272L266.095 185.606L275.612 198.907L276 249.461L269.117 274.575" stroke="#303030" stroke-width="3" stroke-miterlimit="10"/>
<path d="M211.391 115.991L214.848 113.498L219.622 115.991" stroke="#303030" stroke-width="3" stroke-miterlimit="10"/>
<path d="M191.472 115.991L194.929 113.498L199.703 115.991" stroke="#303030" stroke-width="3" stroke-miterlimit="10"/>
<path d="M226.164 70.5464L237.898 61.7517L257.538 61.5194L271.706 76.5386L275.194 102.675L269.691 133.379L260.592 153.493L248.237 147.532V124.074" stroke="#303030" stroke-width="3" stroke-miterlimit="10"/>
<path d="M208.942 276L210.43 251.768L208.942 228.465L211.468 200.563L215.793 179.304V170.401L200.152 167.087L197.455 173.653L167.786 186.674L160.764 199.959L162.515 241.967L151.556 276" stroke="#303030" stroke-width="3" stroke-miterlimit="10"/>
<path d="M233.093 164.424L215.793 170.401" stroke="#303030" stroke-width="3" stroke-miterlimit="10"/>
<path d="M197.455 173.653L215.793 179.304L233.837 174.272" stroke="#303030" stroke-width="3" stroke-miterlimit="10"/>
<path d="M240.704 272.857L245.664 239.737" stroke="#303030" stroke-width="3" stroke-miterlimit="10"/>
<path d="M228.039 197.776L226.35 212.439L235.898 216.914L246.021 212.284L244.594 198.21" stroke="#303030" stroke-width="3" stroke-miterlimit="10"/>
<path d="M177.164 274.575V241.44" stroke="#303030" stroke-width="3" stroke-miterlimit="10"/>
<path d="M164.887 36.7145H192.386" stroke="#303030" stroke-width="3" stroke-miterlimit="10"/>
<path d="M210.724 45.9118H218.056" stroke="#303030" stroke-width="3" stroke-miterlimit="10"/>
<path d="M164.887 45.9118H206.136" stroke="#303030" stroke-width="3" stroke-miterlimit="10"/>
<path d="M194.029 55.0937H208.415" stroke="#303030" stroke-width="3" stroke-miterlimit="10"/>
<path d="M164.887 55.0937H186.232" stroke="#303030" stroke-width="3" stroke-miterlimit="10"/>
<path d="M84.1256 2H126.661" stroke="#303030" stroke-width="3" stroke-miterlimit="10"/>
<path d="M123.995 11.1818H131.327" stroke="#303030" stroke-width="3" stroke-miterlimit="10"/>
<path d="M84.1256 11.1818H119.406" stroke="#303030" stroke-width="3" stroke-miterlimit="10"/>
<path d="M118.662 20.3637H127.653" stroke="#303030" stroke-width="3" stroke-miterlimit="10"/>
<path d="M84.1256 20.3637H110.865" stroke="#303030" stroke-width="3" stroke-miterlimit="10"/>
<path d="M134.288 20.3637H141.62" stroke="#303030" stroke-width="3" stroke-miterlimit="10"/>
<path d="M126.661 29.561H141.062" stroke="#303030" stroke-width="3" stroke-miterlimit="10"/>
<path d="M84.1256 29.561H118.864" stroke="#303030" stroke-width="3" stroke-miterlimit="10"/>
</svg>
