<svg xmlns="http://www.w3.org/2000/svg" width="26" height="26" viewBox="0 0 26 26" fill="none">
  <path d="M24.9167 20.5833C24.9167 21.158 24.6884 21.7091 24.2821 22.1154C23.8758 22.5217 23.3247 22.75 22.75 22.75H3.25004C2.6754 22.75 2.1243 22.5217 1.71798 22.1154C1.31165 21.7091 1.08337 21.158 1.08337 20.5833V8.66667C1.08337 8.09203 1.31165 7.54093 1.71798 7.1346C2.1243 6.72827 2.6754 6.5 3.25004 6.5H7.58337L9.75004 3.25H16.25L18.4167 6.5H22.75C23.3247 6.5 23.8758 6.72827 24.2821 7.1346C24.6884 7.54093 24.9167 8.09203 24.9167 8.66667V20.5833Z" stroke="#303030" stroke-width="1.6" stroke-linecap="round" stroke-linejoin="round"/>
  <path d="M13.0001 18.4167C15.3933 18.4167 17.3334 16.4766 17.3334 14.0833C17.3334 11.6901 15.3933 9.75 13.0001 9.75C10.6068 9.75 8.66675 11.6901 8.66675 14.0833C8.66675 16.4766 10.6068 18.4167 13.0001 18.4167Z" stroke="#303030" stroke-width="1.6" stroke-linecap="round" stroke-linejoin="round"/>
</svg>